<svg xmlns="http://www.w3.org/2000/svg">
<g>
    <rect x="0.848633" y="0.5" width="48" height="48" rx="6" fill="#F4F5FF"/>
    <path d="M16.6556 11.1667L21.7173 15.2625C19.7155 17.296 18.257 19.2422 17.3419 21.1013C16.484 22.9023 16.0551 24.8486 16.0551 26.9401L13.1382 23.7157L22.9183 23.7157L22.9183 37.8334L8.84864 37.8334L8.84863 28.8573C8.84863 25.5458 9.42057 22.5247 10.5645 19.7941C11.7655 17.0055 13.7959 14.1296 16.6556 11.1667ZM34.5859 11.1667L39.6476 15.2625C37.6458 17.296 36.1873 19.2422 35.2722 21.1013C34.4143 22.9023 33.9854 24.8486 33.9854 26.9401L31.0685 23.7157L40.8486 23.7157L40.8486 37.8334L26.7789 37.8334L26.7789 28.8573C26.7789 25.5458 27.3509 22.5247 28.4947 19.7941C29.6958 17.0055 31.7262 14.1296 34.5859 11.1667Z" fill="#673DE6"/>
</g>
</svg>
