<svg xmlns="http://www.w3.org/2000/svg">
<g>
  <path fill="#1D1E20"
    fill-rule="evenodd"
    clip-rule="evenodd"
    d="M25 5C14.5199 5 6 13.5199 6 24C6 34.4801 14.5199 43 25 43C35.4801 43 44 34.4722 44 24C44 13.5199 35.4801 5 25 5ZM25 6.9C34.4256 6.9 42.1 14.5665 42.1 24C42.1 33.4335 34.4256 41.1 25 41.1C15.5744 41.1 7.9 33.4256 7.9 24C7.9 14.5665 15.5744 6.9 25 6.9ZM25 8.8C22.4816 8.79373 20.0013 9.41473 17.7829 10.607C15.5646 11.7992 13.6781 13.5251 12.2937 15.6289C12.65 15.6432 13.0221 15.6875 13.3023 15.6875C14.892 15.6875 17.3398 15.45 17.3398 15.45C18.1568 15.4057 18.217 16.6597 17.4 16.7563C17.4 16.7563 16.5925 16.8228 15.6773 16.875L20.725 31.9562L24.05 21.9813L22.2102 16.875C21.3932 16.8307 20.6063 16.7563 20.6063 16.7563C19.7829 16.704 19.8494 15.3977 20.6648 15.45C20.6648 15.45 23.2108 15.6875 24.7023 15.6875C26.292 15.6875 28.7398 15.45 28.7398 15.45C29.5632 15.4057 29.6756 16.6597 28.8586 16.7563C28.8586 16.7563 27.9909 16.8228 27.0789 16.875L32.6 32.075L34.1437 27.0273C34.6409 25.0007 35.2727 23.4062 35.2727 22.1C35.2727 20.675 34.6188 20.0148 34.025 19.0125C33.2761 17.7506 32.5398 16.704 32.5398 15.45C32.5398 14.0551 33.6007 12.7773 35.0938 12.7773C35.1603 12.7773 35.2046 12.771 35.2727 12.7773C32.4684 10.2101 28.8019 8.79052 25 8.8ZM38.3602 16.6977C38.4267 17.179 38.3887 17.6762 38.4188 18.2414C38.4932 19.7852 38.1892 22.1602 37.825 23.2875C36.6676 26.8722 33.2523 36.7063 33.2523 36.7063C33.3125 36.6841 33.4233 36.6398 33.6688 36.4688C35.6912 35.0802 37.3436 33.2182 38.4819 31.045C39.6203 28.8718 40.2101 26.4533 40.2 24C40.2106 21.4497 39.5773 18.938 38.3586 16.6977H38.3602ZM11.1047 17.825C10.2408 19.7688 9.79627 21.8729 9.8 24C9.79757 26.8498 10.5984 29.6425 12.1107 32.058C13.623 34.4734 15.7854 36.4137 18.35 37.6562L11.1062 17.825H11.1047ZM25.2961 25.3062L20.7234 38.6063C22.1125 39.0084 23.5523 39.2083 24.9984 39.2C26.7654 39.2 28.4659 38.9261 30.0461 38.3688C30.0021 38.2919 29.9624 38.2126 29.9273 38.1312L25.2961 25.3062Z"
  />
</g>
</svg>
